<?xml version="1.0" encoding="iso-8859-1"?>
<!-- Uploaded to: SVG Repo, www.svgrepo.com, Generator: SVG Repo Mixer Tools -->
<!DOCTYPE svg PUBLIC "-//W3C//DTD SVG 1.1//EN" "http://www.w3.org/Graphics/SVG/1.1/DTD/svg11.dtd">
<svg fill="#fdba74" version="1.1" id="Capa_1" xmlns="http://www.w3.org/2000/svg"
	xmlns:xlink="http://www.w3.org/1999/xlink"
	viewBox="0 0 165.293 165.293"
	xml:space="preserve">
<g>
	<g>
		<path d="M154.542,165.293H10.75c-5.929,0-10.75-4.819-10.75-10.751V10.751C0,4.821,4.821,0,10.75,0h88.022
			c5.932,0,10.752,4.821,10.752,10.751v93.398c0,5.932-4.82,10.75-10.752,10.75H51.958c-5.929,0-10.75-4.818-10.75-10.75V71.67
			c0-5.929,4.821-10.75,10.75-10.75c5.93,0,10.751,4.821,10.751,10.75v21.728h25.312V21.501H21.501v122.29h122.29V10.751
			C143.791,4.821,148.61,0,154.542,0s10.751,4.821,10.751,10.751v143.792C165.293,160.474,160.474,165.293,154.542,165.293z"/>
	</g>
</g>
</svg>